<?xml version="1.0" encoding="UTF-8"?>
<svg id="b" data-name="G3Xpo" xmlns="http://www.w3.org/2000/svg" viewBox="0 0 512 512">
  <defs>
    <style>
      .e {
        opacity: .21;
      }

      .e, .f, .g, .h, .i, .j, .k, .l, .m, .n, .o, .p, .q, .r, .s, .t, .u, .v, .w, .x, .y, .z, .aa, .ab, .ac, .ad, .ae, .af, .ag, .ah, .ai, .aj, .ak, .al, .am, .an, .ao, .ap, .aq, .ar, .as, .at {
        stroke-width: 0px;
      }

      .e, .f, .h, .i, .k, .n, .o, .p, .r, .t, .u, .z, .ab, .ad, .ai, .am, .ap, .as, .at {
        fill: #694;
      }

      .f {
        opacity: .54;
      }

      .g, .l, .s, .x, .ac, .af, .an, .aq {
        fill: #d2db5e;
      }

      .g, .at {
        opacity: .68;
      }

      .h {
        opacity: .35;
      }

      .i, .ah {
        opacity: .53;
      }

      .j {
        fill: #4e7137;
      }

      .k, .l {
        opacity: .6;
      }

      .m {
        fill: #e45f9f;
      }

      .n {
        opacity: .28;
      }

      .o {
        opacity: .46;
      }

      .p {
        opacity: .15;
      }

      .q {
        opacity: .49;
      }

      .q, .w, .y, .ah {
        fill: #da348a;
      }

      .r {
        opacity: .29;
      }

      .s {
        opacity: .39;
      }

      .t {
        opacity: .58;
      }

      .v {
        fill: #b8d15d;
        opacity: .72;
      }

      .x {
        opacity: .45;
      }

      .y, .ab {
        opacity: .47;
      }

      .z {
        opacity: .61;
      }

      .aa {
        opacity: .97;
      }

      .aa, .al {
        fill: #fff;
      }

      .ac {
        opacity: .71;
      }

      .ad {
        opacity: .43;
      }

      .ae {
        fill: #30682c;
      }

      .af {
        opacity: .64;
      }

      .ag {
        fill: #1d1d1b;
      }

      .ai {
        opacity: .56;
      }

      .aj {
        fill: #0e0c19;
      }

      .ak {
        fill: #b22873;
      }

      .am {
        opacity: .17;
      }

      .an {
        opacity: .74;
      }

      .ao {
        fill: #298dcd;
      }

      .ap {
        opacity: .65;
      }

      .ar {
        fill: #86bf5a;
      }

      .as {
        opacity: .37;
      }
    </style>
  </defs>
  <g id="c" data-name="Uiii mais no meio">
    <g id="d" data-name="Logo Colorida">
      <polygon class="j" points="271.13 364.24 256.28 362.23 257.93 367.75 236.58 354.38 222.72 345.7 213.37 356.72 192.47 327.44 228.22 304.61 238.67 312.12 246.3 332.71 252.97 350.71 271.13 351.71 263.43 355.72 271.13 364.24"/>
      <polygon class="j" points="268.93 70.09 250.83 73.1 247.37 84.92 238.12 68.09 231.65 67.63 230.97 67.59 236.08 89.27 237.57 95.65 194.91 114.69 203.51 73.64 205.67 63.31 219.78 47.04 220.13 47.21 240.87 57.09 259.58 49.07 254.07 60.09 268.93 70.09"/>
      <polygon class="m" points="410.3 152.27 415.8 159.79 387.19 153.72 387.97 151.87 391.47 143.49 393.25 139.24 420.2 151.27 410.3 152.27"/>
      <polygon class="w" points="410.3 152.27 387.97 151.87 391.47 143.49 394.35 140.75 410.3 152.27"/>
      <polygon class="q" points="383.89 150.77 410.3 152.27 415.8 159.79 382.79 152.77 383.89 150.77"/>
      <polygon class="ar" points="439.45 320.14 436.15 358.73 415.8 396.31 370.31 434.75 279.38 464.96 183.11 436.9 125.55 393.81 138.79 411.76 169.91 453.94 157.26 448.42 151.21 462.45 144.61 443.41 124.81 460.95 130.31 436.4 106.59 420.15 72.55 396.81 72.6 396.6 84.1 354.22 104.45 357.22 104 355.84 78.05 277.05 78.32 276.22 114.35 167.81 215.64 94 216.12 93.64 216.23 93.63 254.39 89.65 254.55 89.64 254.62 89.63 298.08 73.1 298.27 73.17 355.39 96.25 356.31 96.62 356.39 96.65 392.14 127.32 403.3 136.9 403.7 137.24 389.94 156.78 310.18 171.31 276.63 163.3 276.61 163.32 234.27 207.39 237.5 241.21 237.52 241.42 237.52 241.43 237.57 241.97 237.74 241.94 269.48 237.46 281.03 220.92 283.78 234.17 302.48 240.47 286.53 247.48 292.03 258.51 273.33 250.49 232.42 269.97 232.37 269.99 232.29 270.03 205.67 246.98 190.47 276.65 192.47 318.39 231.52 371.75 296.91 386.25 376.02 365.22 394.22 319.08 361.89 288.07 324.92 287.18 292.71 287.18 338.04 269.59 372.73 265.56 416.2 280.02 439.45 320.14"/>
      <polygon class="e" points="260.13 140.25 282.09 117.37 320.63 133.73 306.88 139.74 260.13 140.25"/>
      <polygon class="u" points="298.63 101.66 289.28 104.67 282.13 117.19 283.78 128.72 292.58 137.74 306.88 139.74 320.63 133.73 326.72 119.99 318.43 107.67 298.63 101.66"/>
      <polygon class="m" points="306.88 104.67 290.18 107.46 282.09 117.37 283.42 128.86 292.71 137.93 306.65 139.75 317.94 132.49 321.18 118.7 315.95 109.51 306.88 104.67"/>
      <polygon class="aj" points="306.88 104.67 295.44 106.98 288.73 115.19 289.83 124.71 297.53 132.23 309.08 133.73 318.43 127.72 321.18 118.7 316.78 108.68 306.88 104.67"/>
      <polygon class="al" points="317.94 115.49 313.9 109.68 305.23 109.68 311.17 115.49 317.94 115.49"/>
      <polygon class="aa" points="312.93 117.19 312.93 124.01 318.54 117.19 312.93 117.19"/>
      <polygon class="t" points="298.08 84.12 312.93 98.15 328.34 105.17 326.69 120.2 376.19 125.21 344.29 101.16 298.08 84.12"/>
      <polygon class="aq" points="298.63 101.66 318.43 107.67 328.34 105.17 312.93 98.15 298.63 101.66"/>
      <polygon class="v" points="318.43 107.67 326.72 119.99 328.34 105.17 318.43 107.67"/>
      <polygon class="aq" points="298.08 73.1 298.08 84.12 252.42 103.16 254.55 89.64 254.62 89.63 298.08 73.1"/>
      <polygon class="an" points="356.31 96.62 344.29 101.16 298.08 84.12 298.08 73.1 298.27 73.17 355.39 96.25 356.31 96.62"/>
      <polygon class="ak" points="268.93 70.09 250.83 73.1 247.37 84.92 238.12 68.09 230.97 67.59 228.22 55.56 220.13 47.21 240.87 57.09 259.58 49.07 254.07 60.09 268.93 70.09"/>
      <polygon class="m" points="286.53 247.48 292.03 258.51 273.33 250.49 232.42 269.97 242.52 256.5 237.74 241.94 269.48 237.46 281.03 220.92 283.78 234.17 302.48 240.47 286.53 247.48"/>
      <polygon class="m" points="169.91 453.94 157.26 448.42 151.21 462.45 144.61 443.41 124.81 460.95 130.31 436.4 106.59 420.15 129.21 420.86 138.79 411.76 169.91 453.94"/>
      <polygon class="ak" points="271.13 364.24 256.28 362.23 257.93 367.75 236.58 354.38 244.72 349.71 246.3 332.71 252.97 350.71 271.13 351.71 263.43 355.72 271.13 364.24"/>
      <polygon class="ac" points="254.62 89.63 252.42 103.16 220.52 111.68 216.12 93.64 216.12 93.64 254.62 89.63"/>
      <polygon class="aq" points="220.52 111.68 127.56 164.8 114.35 167.81 215.64 94 216.12 93.64 216.23 93.63 220.52 111.68"/>
      <polygon class="x" points="395.45 130.22 376.19 125.21 344.29 101.16 356.31 96.62 356.39 96.65 395.45 130.22"/>
      <polygon class="k" points="252.42 103.16 289.28 104.67 298.08 84.12 252.42 103.16"/>
      <polygon class="as" points="298.08 84.12 289.28 104.67 298.63 101.66 312.93 98.15 298.08 84.12"/>
      <polygon class="ae" points="367.39 140.75 373.44 135.74 383.34 144.54 367.39 140.75"/>
      <polygon class="l" points="373.44 135.74 375.64 131.23 383.34 144.54 373.44 135.74"/>
      <polygon class="u" points="276.61 163.32 234.27 207.39 260.13 140.25 276.61 163.32"/>
      <polygon class="h" points="252.42 103.16 260.13 140.25 282.09 117.37 289.28 104.67 252.42 103.16"/>
      <polygon class="ai" points="220.52 111.68 260.13 140.25 252.42 103.16 220.52 111.68"/>
      <polyline class="ah" points="292.03 258.51 278.28 246.98 286.53 247.48"/>
      <polygon class="ah" points="283.78 234.17 278.83 238.46 303.03 240.47 283.78 234.17"/>
      <polyline class="q" points="232.42 269.97 242.52 256.5 273.33 250.49"/>
      <polygon class="f" points="260.13 140.25 306.65 139.75 276.61 163.32 260.13 140.25"/>
      <polygon class="h" points="276.61 163.32 306.65 139.75 310.18 171.31 276.61 163.32"/>
      <polygon class="am" points="310.18 171.31 306.65 139.75 342.64 152.27 393.25 152.27 389.94 156.78 310.18 171.31"/>
      <polygon class="u" points="375.64 131.23 371.79 132.23 367.39 140.75 373.44 135.74 375.64 131.23"/>
      <polygon class="u" points="114.35 167.81 127.56 164.8 119.3 220.92 78.05 277.05 114.35 167.81"/>
      <polygon class="ap" points="103.81 355.28 104.45 357.22 119.3 220.92 78.05 277.05 103.81 355.28"/>
      <polygon class="i" points="242.52 256.5 232.37 269.99 232.29 270.03 195.22 237.96 242.52 256.5"/>
      <polygon class="f" points="234.27 207.39 226.57 215.91 198.52 212.4 260.13 140.25 234.27 207.39"/>
      <polygon class="am" points="127.56 164.8 220.52 111.68 169.91 215.41 119.3 220.92 127.56 164.8"/>
      <polygon class="u" points="190.47 276.65 195.22 237.96 205.67 246.98 190.47 276.65"/>
      <polygon class="g" points="237.52 241.42 226.57 215.91 234.27 207.39 237.5 241.21 237.52 241.42"/>
      <polygon class="y" points="129.21 420.86 130.31 436.4 106.59 420.15 129.21 420.86"/>
      <polygon class="y" points="124.81 460.95 136.91 440.41 144.61 443.41 124.81 460.95"/>
      <polygon class="y" points="157.26 448.42 152.31 446.92 151.21 462.45 157.26 448.42"/>
      <polygon class="i" points="195.22 237.96 169.91 252.99 151.04 336.18 192.47 318.39 190.47 276.65 195.22 237.96"/>
      <polygon class="n" points="119.3 220.92 169.91 252.99 195.22 237.96 198.52 212.4 119.3 220.92"/>
      <polygon class="ad" points="104.45 357.22 125.55 393.81 151.21 336.18 104.45 357.22"/>
      <polygon class="u" points="151.04 336.18 231.52 371.75 192.47 318.39 151.04 336.18"/>
      <polygon class="u" points="129.21 420.86 106.59 420.15 72.55 396.81 72.6 396.6 94 390.8 129.21 420.86"/>
      <polygon class="ad" points="104.45 357.22 94 390.8 72.6 396.6 84.1 354.22 104.45 357.22"/>
      <polygon class="p" points="119.3 220.92 169.91 252.99 104.45 357.22 119.3 220.92"/>
      <polygon class="u" points="125.55 393.81 210.62 414.35 183.11 436.9 125.55 393.81"/>
      <polygon class="at" points="183.11 436.9 210.62 414.35 279.38 464.96 183.11 436.9"/>
      <polygon class="u" points="279.38 464.96 336.59 405.33 370.31 434.75 279.38 464.96"/>
      <polygon class="r" points="210.62 414.35 279.38 464.96 336.59 405.33 210.62 414.35"/>
      <polygon class="z" points="336.59 405.33 370.31 434.75 415.8 396.31 336.59 405.33"/>
      <polygon class="ab" points="151.04 336.18 210.62 414.35 231.52 371.75 151.04 336.18"/>
      <polygon class="n" points="336.59 405.33 376.02 365.22 436.15 358.73 415.8 396.31 336.59 405.33"/>
      <polygon class="aq" points="372.73 265.56 366.84 273.04 404.25 284.56 416.2 280.02 372.73 265.56"/>
      <polygon class="af" points="372.73 265.56 366.84 273.04 340.44 275.54 338.24 269.53 372.73 265.56"/>
      <polygon class="s" points="338.04 269.59 340.44 275.54 306.01 287.18 292.71 287.18 338.04 269.59"/>
      <polygon class="s" points="439.45 320.14 404.25 284.56 416.2 280.02 439.45 320.14"/>
      <polyline class="at" points="376.02 365.22 296.91 386.25 336.59 405.33"/>
      <polygon class="u" points="394.22 319.08 405.42 361.82 376.02 365.22 394.22 319.08"/>
      <polygon class="o" points="361.89 288.07 407.55 319.14 436.15 358.73 405.42 361.82 394.22 319.08 361.89 288.07"/>
      <polygon class="p" points="404.25 284.56 407.55 319.14 436.15 358.73 439.45 320.14 404.25 284.56"/>
      <polygon class="u" points="231.52 371.75 336.59 405.33 296.91 386.25 231.52 371.75"/>
    </g>
    <g>
      <g>
        <path class="ag" d="M90.01,244.92v14.79h25.36l-.14,9.47h-50.36v-33.63h65.23v-18.35h-62.14c-2.47,0-4.8.58-6.96,1.72-2.17,1.14-4.08,2.74-5.73,4.77-1.66,2.05-2.95,4.4-3.88,7.07s-1.39,5.55-1.39,8.6v26c0,3.05.46,5.93,1.39,8.6.93,2.67,2.22,5.02,3.88,7.07,1.65,2.03,3.55,3.63,5.73,4.77,2.16,1.14,4.48,1.72,6.96,1.72h44.18c2.47,0,4.8-.58,6.97-1.72,2.16-1.14,4.07-2.74,5.73-4.77,1.65-2.05,2.94-4.4,3.87-7.07.93-2.67,1.39-5.55,1.39-8.6l.05-20.44h-40.14Z"/>
        <path class="ag" d="M136.7,245.02v14.69h60.27v-14.69h-60.27ZM214.99,259c-1.21-2.64-2.81-4.89-4.81-6.76,1.86-1.78,3.34-3.99,4.45-6.63,1.09-2.62,1.65-5.48,1.65-8.53,0-2.73-.44-5.29-1.34-7.71-.89-2.42-2.11-4.52-3.65-6.3-1.56-1.78-3.39-3.21-5.53-4.27-2.13-1.07-4.43-1.59-6.92-1.59h-62.13v18.35h65.23v33.63h-65.23v18.35h62.13c2.49,0,4.81-.53,6.97-1.59,2.17-1.05,4.08-2.49,5.73-4.27,1.66-1.78,2.94-3.88,3.87-6.3s1.39-4.99,1.39-7.71c0-3.14-.6-6.03-1.8-8.65Z"/>
        <path class="ag" d="M315.57,217.2h-24.46l-21.16,20.51c-2.41,2.3-4.13,5.15-5.16,8.54-.55-1.7-1.26-3.27-2.11-4.71-.87-1.44-1.85-2.73-2.95-3.83l-21.15-20.51h-24.46l36.33,34.91-36.85,35.41h24.45l21.58-21.02c1.17-1.11,2.19-2.37,3.05-3.82.85-1.44,1.56-3.06,2.11-4.85.55,1.78,1.27,3.4,2.17,4.85.89,1.44,1.92,2.71,3.09,3.82l21.58,21.02h.01v-23.5l-12.4-11.92,36.33-34.91Z"/>
      </g>
      <g>
        <path class="ao" d="M291.63,244.78v19.25l24.45,23.5h-24.45v45.21l25.71-30.14v-15.03h39.37l30.82-42.79h-95.9ZM338.38,271.64h-21.04v-11.03h29.11l-8.08,11.03Z"/>
        <path class="ao" d="M396.92,244.78l-30.82,42.79h95.9v-42.79h-65.08ZM436.29,271.64h-29.12l8.16-11.03h20.96v11.03Z"/>
      </g>
    </g>
  </g>
</svg>