<?xml version="1.0" encoding="UTF-8"?>
<svg id="a" data-name="G3X PNG colorido" xmlns="http://www.w3.org/2000/svg" viewBox="0 0 512 512">
  <defs>
    <style>
      .d {
        opacity: .21;
      }

      .d, .e, .f, .g, .h, .i, .j, .k, .l, .m, .n, .o, .p, .q, .r, .s, .t, .u, .v, .w, .x, .y, .z, .aa, .ab, .ac, .ad, .ae, .af, .ag, .ah, .ai, .aj, .ak, .al, .am, .an, .ao, .ap, .aq {
        stroke-width: 0px;
      }

      .d, .e, .g, .h, .j, .m, .n, .o, .q, .s, .t, .y, .aa, .ac, .ag, .ak, .am, .ap, .aq {
        fill: #694;
      }

      .e {
        opacity: .54;
      }

      .f, .k, .r, .w, .ab, .ae, .al, .an {
        fill: #d2db5e;
      }

      .f, .aq {
        opacity: .68;
      }

      .g {
        opacity: .35;
      }

      .h, .af {
        opacity: .53;
      }

      .i {
        fill: #4e7137;
      }

      .j, .k {
        opacity: .6;
      }

      .l {
        fill: #e45f9f;
      }

      .m {
        opacity: .28;
      }

      .n {
        opacity: .46;
      }

      .o {
        opacity: .15;
      }

      .p {
        opacity: .49;
      }

      .p, .v, .x, .af {
        fill: #da348a;
      }

      .q {
        opacity: .29;
      }

      .r {
        opacity: .39;
      }

      .s {
        opacity: .58;
      }

      .u {
        fill: #b8d15d;
        opacity: .72;
      }

      .w {
        opacity: .45;
      }

      .x, .aa {
        opacity: .47;
      }

      .y {
        opacity: .61;
      }

      .z {
        opacity: .97;
      }

      .z, .aj {
        fill: #fff;
      }

      .ab {
        opacity: .71;
      }

      .ac {
        opacity: .43;
      }

      .ad {
        fill: #30682c;
      }

      .ae {
        opacity: .64;
      }

      .ag {
        opacity: .56;
      }

      .ah {
        fill: #0e0c19;
      }

      .ai {
        fill: #b22873;
      }

      .ak {
        opacity: .17;
      }

      .al {
        opacity: .74;
      }

      .am {
        opacity: .65;
      }

      .ao {
        fill: #86bf5a;
      }

      .ap {
        opacity: .37;
      }
    </style>
  </defs>
  <g id="b" data-name="Ao lado">
    <g id="c" data-name="Logo Colorida">
      <polygon class="i" points="178.39 351.05 165.35 349.29 166.8 354.13 148.05 342.39 135.88 334.77 127.67 344.45 109.31 318.74 140.71 298.69 149.89 305.29 156.59 323.37 162.45 339.17 178.39 340.05 171.63 343.57 178.39 351.05"/>
      <polygon class="i" points="176.46 92.74 160.56 95.38 157.53 105.76 149.41 90.98 143.72 90.58 143.13 90.54 147.61 109.58 148.92 115.18 111.46 131.9 119.01 95.85 120.9 86.78 133.3 72.49 133.61 72.64 151.82 81.32 168.25 74.28 163.42 83.96 176.46 92.74"/>
      <polygon class="l" points="300.61 164.91 305.44 171.51 280.32 166.18 281 164.55 284.07 157.2 285.63 153.46 309.3 164.03 300.61 164.91"/>
      <polygon class="v" points="300.61 164.91 281 164.55 284.07 157.2 286.6 154.79 300.61 164.91"/>
      <polygon class="p" points="277.42 163.59 300.61 164.91 305.44 171.51 276.45 165.35 277.42 163.59"/>
      <polygon class="ao" points="326.21 312.33 323.31 346.21 305.44 379.22 265.49 412.98 185.64 439.51 101.1 414.86 50.55 377.03 62.18 392.79 89.5 429.83 78.39 424.98 73.08 437.31 67.28 420.58 49.89 435.99 54.72 414.42 33.9 400.15 4 379.66 4.05 379.48 14.14 342.25 32.02 344.89 31.62 343.68 8.83 274.48 9.07 273.76 40.71 178.55 129.66 113.73 130.08 113.42 130.18 113.41 163.7 109.92 163.84 109.9 163.9 109.9 202.06 95.38 202.23 95.44 252.39 115.71 253.19 116.03 253.27 116.06 284.66 143 294.46 151.41 294.81 151.7 282.73 168.87 212.69 181.63 183.22 174.59 183.2 174.61 146.02 213.31 148.86 243.01 148.88 243.19 148.88 243.2 148.92 243.68 149.07 243.66 176.94 239.72 187.09 225.2 189.5 236.83 205.93 242.36 191.92 248.52 196.75 258.2 180.32 251.16 144.4 268.26 144.36 268.29 144.29 268.32 120.9 248.08 107.56 274.14 109.31 310.79 143.61 357.65 201.04 370.38 270.51 351.91 286.49 311.39 258.1 284.16 225.63 283.39 197.35 283.39 237.16 267.94 267.62 264.39 305.79 277.1 326.21 312.33"/>
      <polygon class="d" points="168.73 154.35 188.02 134.26 221.87 148.62 209.79 153.91 168.73 154.35"/>
      <polygon class="t" points="202.54 120.46 194.33 123.1 188.05 134.1 189.5 144.22 197.23 152.14 209.79 153.91 221.87 148.62 227.21 136.55 219.93 125.74 202.54 120.46"/>
      <polygon class="l" points="209.79 123.1 195.12 125.55 188.02 134.26 189.18 144.35 197.34 152.32 209.59 153.91 219.5 147.54 222.35 135.42 217.75 127.35 209.79 123.1"/>
      <polygon class="ah" points="209.79 123.1 199.74 125.13 193.85 132.34 194.81 140.7 201.58 147.3 211.72 148.62 219.93 143.34 222.35 135.42 218.49 126.62 209.79 123.1"/>
      <polygon class="aj" points="219.5 132.6 215.95 127.5 208.34 127.5 213.55 132.6 219.5 132.6"/>
      <polygon class="z" points="215.1 134.1 215.1 140.09 220.03 134.1 215.1 134.1"/>
      <polygon class="s" points="202.06 105.06 215.1 117.38 228.63 123.54 227.18 136.74 270.66 141.14 242.64 120.02 202.06 105.06"/>
      <polygon class="an" points="202.54 120.46 219.93 125.74 228.63 123.54 215.1 117.38 202.54 120.46"/>
      <polygon class="u" points="219.93 125.74 227.21 136.55 228.63 123.54 219.93 125.74"/>
      <polygon class="an" points="202.06 95.38 202.06 105.06 161.97 121.78 163.84 109.9 163.9 109.9 202.06 95.38"/>
      <polygon class="al" points="253.19 116.03 242.64 120.02 202.06 105.06 202.06 95.38 202.23 95.44 252.39 115.71 253.19 116.03"/>
      <polygon class="ai" points="176.46 92.74 160.56 95.38 157.53 105.76 149.41 90.98 143.13 90.54 140.71 79.97 133.61 72.64 151.82 81.32 168.25 74.28 163.42 83.96 176.46 92.74"/>
      <polygon class="l" points="191.92 248.52 196.75 258.2 180.32 251.16 144.4 268.26 153.27 256.44 149.07 243.66 176.94 239.72 187.09 225.2 189.5 236.83 205.93 242.36 191.92 248.52"/>
      <polygon class="l" points="89.5 429.83 78.39 424.98 73.08 437.31 67.28 420.58 49.89 435.99 54.72 414.42 33.9 400.15 53.76 400.78 62.18 392.79 89.5 429.83"/>
      <polygon class="ai" points="178.39 351.05 165.35 349.29 166.8 354.13 148.05 342.39 155.2 338.29 156.59 323.37 162.45 339.17 178.39 340.05 171.63 343.57 178.39 351.05"/>
      <polygon class="ab" points="163.9 109.9 161.97 121.78 133.95 129.26 130.08 113.42 130.08 113.42 163.9 109.9"/>
      <polygon class="an" points="133.95 129.26 52.31 175.91 40.71 178.55 129.66 113.73 130.08 113.42 130.18 113.41 133.95 129.26"/>
      <polygon class="w" points="287.57 145.54 270.66 141.14 242.64 120.02 253.19 116.03 253.27 116.06 287.57 145.54"/>
      <polygon class="j" points="161.97 121.78 194.33 123.1 202.06 105.06 161.97 121.78"/>
      <polygon class="ap" points="202.06 105.06 194.33 123.1 202.54 120.46 215.1 117.38 202.06 105.06"/>
      <polygon class="ad" points="262.93 154.79 268.24 150.38 276.94 158.12 262.93 154.79"/>
      <polygon class="k" points="268.24 150.38 270.17 146.42 276.94 158.12 268.24 150.38"/>
      <polygon class="t" points="183.2 174.61 146.02 213.31 168.73 154.35 183.2 174.61"/>
      <polygon class="g" points="161.97 121.78 168.73 154.35 188.02 134.26 194.33 123.1 161.97 121.78"/>
      <polygon class="ag" points="133.95 129.26 168.73 154.35 161.97 121.78 133.95 129.26"/>
      <polyline class="af" points="196.75 258.2 184.67 248.08 191.92 248.52"/>
      <polygon class="af" points="189.5 236.83 185.15 240.6 206.41 242.36 189.5 236.83"/>
      <polyline class="p" points="144.4 268.26 153.27 256.44 180.32 251.16"/>
      <polygon class="e" points="168.73 154.35 209.59 153.91 183.2 174.61 168.73 154.35"/>
      <polygon class="g" points="183.2 174.61 209.59 153.91 212.69 181.63 183.2 174.61"/>
      <polygon class="ak" points="212.69 181.63 209.59 153.91 241.19 164.91 285.63 164.91 282.73 168.87 212.69 181.63"/>
      <polygon class="t" points="270.17 146.42 266.79 147.3 262.93 154.79 268.24 150.38 270.17 146.42"/>
      <polygon class="t" points="40.71 178.55 52.31 175.91 45.06 225.2 8.83 274.48 40.71 178.55"/>
      <polygon class="am" points="31.45 343.19 32.02 344.89 45.06 225.2 8.83 274.48 31.45 343.19"/>
      <polygon class="h" points="153.27 256.44 144.36 268.29 144.29 268.32 111.73 240.16 153.27 256.44"/>
      <polygon class="e" points="146.02 213.31 139.26 220.79 114.62 217.71 168.73 154.35 146.02 213.31"/>
      <polygon class="ak" points="52.31 175.91 133.95 129.26 89.5 220.35 45.06 225.2 52.31 175.91"/>
      <polygon class="t" points="107.56 274.14 111.73 240.16 120.9 248.08 107.56 274.14"/>
      <polygon class="f" points="148.88 243.19 139.26 220.79 146.02 213.31 148.86 243.01 148.88 243.19"/>
      <polygon class="x" points="53.76 400.78 54.72 414.42 33.9 400.15 53.76 400.78"/>
      <polygon class="x" points="49.89 435.99 60.52 417.94 67.28 420.58 49.89 435.99"/>
      <polygon class="x" points="78.39 424.98 74.05 423.66 73.08 437.31 78.39 424.98"/>
      <polygon class="h" points="111.73 240.16 89.5 253.36 72.93 326.41 109.31 310.79 107.56 274.14 111.73 240.16"/>
      <polygon class="m" points="45.06 225.2 89.5 253.36 111.73 240.16 114.62 217.71 45.06 225.2"/>
      <polygon class="ac" points="32.02 344.89 50.55 377.03 73.08 326.41 32.02 344.89"/>
      <polygon class="t" points="72.93 326.41 143.61 357.65 109.31 310.79 72.93 326.41"/>
      <polygon class="t" points="53.76 400.78 33.9 400.15 4 379.66 4.05 379.48 22.84 374.38 53.76 400.78"/>
      <polygon class="ac" points="32.02 344.89 22.84 374.38 4.05 379.48 14.14 342.25 32.02 344.89"/>
      <polygon class="o" points="45.06 225.2 89.5 253.36 32.02 344.89 45.06 225.2"/>
      <polygon class="t" points="50.55 377.03 125.25 395.06 101.1 414.86 50.55 377.03"/>
      <polygon class="aq" points="101.1 414.86 125.25 395.06 185.64 439.51 101.1 414.86"/>
      <polygon class="t" points="185.64 439.51 235.88 387.14 265.49 412.98 185.64 439.51"/>
      <polygon class="q" points="125.25 395.06 185.64 439.51 235.88 387.14 125.25 395.06"/>
      <polygon class="y" points="235.88 387.14 265.49 412.98 305.44 379.22 235.88 387.14"/>
      <polygon class="aa" points="72.93 326.41 125.25 395.06 143.61 357.65 72.93 326.41"/>
      <polygon class="m" points="235.88 387.14 270.51 351.91 323.31 346.21 305.44 379.22 235.88 387.14"/>
      <polygon class="an" points="267.62 264.39 262.45 270.96 295.29 281.08 305.79 277.1 267.62 264.39"/>
      <polygon class="ae" points="267.62 264.39 262.45 270.96 239.26 273.16 237.33 267.88 267.62 264.39"/>
      <polygon class="r" points="237.16 267.94 239.26 273.16 209.03 283.39 197.35 283.39 237.16 267.94"/>
      <polygon class="r" points="326.21 312.33 295.29 281.08 305.79 277.1 326.21 312.33"/>
      <polyline class="aq" points="270.51 351.91 201.04 370.38 235.88 387.14"/>
      <polygon class="t" points="286.49 311.39 296.33 348.93 270.51 351.91 286.49 311.39"/>
      <polygon class="n" points="258.1 284.16 298.19 311.45 323.31 346.21 296.33 348.93 286.49 311.39 258.1 284.16"/>
      <polygon class="o" points="295.29 281.08 298.19 311.45 323.31 346.21 326.21 312.33 295.29 281.08"/>
      <polygon class="t" points="143.61 357.65 235.88 387.14 201.04 370.38 143.61 357.65"/>
    </g>
    <g>
      <path class="aj" d="M312.39,234.15c0,3.22-.49,6.23-1.47,9.05-.98,2.81-2.33,5.29-4.07,7.44-1.74,2.14-3.75,3.82-6.02,5.03-2.28,1.21-4.72,1.81-7.33,1.81h-46.46c-2.61,0-5.05-.6-7.33-1.81-2.28-1.21-4.29-2.88-6.02-5.03-1.74-2.14-3.09-4.62-4.07-7.44-.98-2.81-1.47-5.83-1.47-9.05v-27.34c0-3.22.49-6.23,1.47-9.04.98-2.81,2.33-5.29,4.07-7.44,1.74-2.14,3.75-3.82,6.02-5.02,2.28-1.21,4.72-1.81,7.33-1.81h65.35v19.3h-68.61v35.38h52.97l.13-9.96h-26.67v-15.56h42.22l-.06,21.5Z"/>
      <path class="aj" d="M403.57,236.56c0,2.86-.49,5.56-1.47,8.11-.98,2.55-2.33,4.76-4.07,6.63-1.74,1.88-3.75,3.37-6.02,4.49-2.28,1.12-4.72,1.67-7.33,1.67h-65.35v-19.3h68.61v-35.38h-68.61v-19.3h65.35c2.61,0,5.03.56,7.27,1.68,2.24,1.12,4.18,2.61,5.81,4.49s2.91,4.09,3.85,6.63c.94,2.55,1.41,5.25,1.41,8.11,0,3.22-.58,6.21-1.74,8.98-1.16,2.77-2.71,5.09-4.67,6.97,2.1,1.97,3.78,4.33,5.05,7.1,1.27,2.77,1.9,5.81,1.9,9.11ZM382.73,228.21h-63.4v-15.45h63.4v15.45Z"/>
      <path class="aj" d="M508,257.46h-25.73l-22.69-22.11c-1.23-1.16-2.32-2.5-3.26-4.02-.94-1.52-1.7-3.22-2.28-5.09-.58,1.88-1.32,3.57-2.23,5.09-.91,1.52-1.97,2.86-3.2,4.02l-22.69,22.11h-25.73l38.75-37.25-38.21-36.72h25.73l22.25,21.57c1.16,1.16,2.19,2.5,3.09,4.02.9,1.52,1.65,3.17,2.23,4.96,1.09-3.57,2.89-6.57,5.43-8.98l22.25-21.57h25.73l-38.21,36.72,38.75,37.25Z"/>
    </g>
  </g>
</svg>