<?xml version="1.0" encoding="UTF-8"?>
<svg id="a" data-name="G3X PNG colorido" xmlns="http://www.w3.org/2000/svg" viewBox="0 0 512 512">
  <defs>
    <style>
      .d {
        opacity: .21;
      }

      .d, .e, .f, .g, .h, .i, .j, .k, .l, .m, .n, .o, .p, .q, .r, .s, .t, .u, .v, .w, .x, .y, .z, .aa, .ab, .ac, .ad, .ae, .af, .ag, .ah, .ai, .aj, .ak, .al, .am, .an, .ao, .ap, .aq {
        stroke-width: 0px;
      }

      .d, .e, .g, .h, .j, .m, .n, .o, .q, .s, .t, .y, .aa, .ac, .ag, .ak, .am, .ap, .aq {
        fill: #694;
      }

      .e {
        opacity: .54;
      }

      .f, .k, .r, .w, .ab, .ae, .al, .an {
        fill: #d2db5e;
      }

      .f, .aq {
        opacity: .68;
      }

      .g {
        opacity: .35;
      }

      .h, .af {
        opacity: .53;
      }

      .i {
        fill: #4e7137;
      }

      .j, .k {
        opacity: .6;
      }

      .l {
        fill: #e45f9f;
      }

      .m {
        opacity: .28;
      }

      .n {
        opacity: .46;
      }

      .o {
        opacity: .15;
      }

      .p {
        opacity: .49;
      }

      .p, .v, .x, .af {
        fill: #da348a;
      }

      .q {
        opacity: .29;
      }

      .r {
        opacity: .39;
      }

      .s {
        opacity: .58;
      }

      .u {
        fill: #b8d15d;
        opacity: .72;
      }

      .w {
        opacity: .45;
      }

      .x, .aa {
        opacity: .47;
      }

      .y {
        opacity: .61;
      }

      .z {
        opacity: .97;
      }

      .z, .aj {
        fill: #fff;
      }

      .ab {
        opacity: .71;
      }

      .ac {
        opacity: .43;
      }

      .ad {
        fill: #30682c;
      }

      .ae {
        opacity: .64;
      }

      .ag {
        opacity: .56;
      }

      .ah {
        fill: #0e0c19;
      }

      .ai {
        fill: #b22873;
      }

      .ak {
        opacity: .17;
      }

      .al {
        opacity: .74;
      }

      .am {
        opacity: .65;
      }

      .ao {
        fill: #86bf5a;
      }

      .ap {
        opacity: .37;
      }
    </style>
  </defs>
  <g id="b" data-name="Abaixo">
    <g id="c" data-name="Logo Colorida">
      <polygon class="i" points="268.86 296.89 256.23 295.18 257.64 299.87 239.49 288.5 227.7 281.12 219.75 290.5 201.97 265.6 232.38 246.18 241.27 252.57 247.75 270.08 253.43 285.38 268.86 286.23 262.31 289.64 268.86 296.89"/>
      <polygon class="i" points="266.99 46.76 251.6 49.31 248.66 59.37 240.8 45.05 235.29 44.66 234.72 44.63 239.06 63.07 240.33 68.49 204.05 84.68 211.36 49.77 213.2 40.99 225.2 27.15 225.5 27.3 243.14 35.7 259.04 28.88 254.36 38.25 266.99 46.76"/>
      <polygon class="l" points="387.21 116.64 391.89 123.03 367.56 117.87 368.22 116.29 371.2 109.17 372.71 105.56 395.63 115.79 387.21 116.64"/>
      <polygon class="v" points="387.21 116.64 368.22 116.29 371.2 109.17 373.64 106.84 387.21 116.64"/>
      <polygon class="p" points="364.76 115.36 387.21 116.64 391.89 123.03 363.82 117.07 364.76 115.36"/>
      <polygon class="ao" points="412 259.39 409.19 292.2 391.89 324.16 353.21 356.85 275.88 382.54 194.02 358.67 145.07 322.04 156.33 337.3 182.79 373.16 172.04 368.47 166.89 380.41 161.28 364.21 144.44 379.13 149.12 358.25 128.95 344.43 100 324.58 100.05 324.41 109.82 288.36 127.13 290.92 126.74 289.75 104.68 222.74 104.91 222.04 135.55 129.85 221.68 67.09 222.09 66.78 222.19 66.77 254.63 63.39 254.77 63.38 254.83 63.37 291.78 49.31 291.95 49.38 340.52 69 341.3 69.31 341.37 69.34 371.77 95.42 381.26 103.57 381.6 103.86 369.9 120.47 302.07 132.83 273.54 126.01 273.52 126.03 237.52 163.51 240.27 192.27 240.29 192.45 240.29 192.45 240.33 192.91 240.47 192.89 267.46 189.08 277.28 175.02 279.62 186.28 295.53 191.64 281.96 197.6 286.64 206.98 270.73 200.16 235.95 216.72 235.91 216.74 235.84 216.78 213.2 197.18 200.28 222.41 201.97 257.9 235.18 303.28 290.79 315.61 358.06 297.72 373.54 258.48 346.04 232.12 314.6 231.36 287.22 231.36 325.77 216.41 355.26 212.97 392.23 225.27 412 259.39"/>
      <polygon class="d" points="259.51 106.41 278.18 86.96 310.96 100.87 299.27 105.99 259.51 106.41"/>
      <polygon class="t" points="292.25 73.6 284.3 76.16 278.22 86.81 279.62 96.61 287.11 104.28 299.27 105.99 310.96 100.87 316.14 89.18 309.09 78.71 292.25 73.6"/>
      <polygon class="l" points="299.27 76.16 285.07 78.53 278.18 86.96 279.31 96.73 287.22 104.45 299.07 105.99 308.67 99.82 311.43 88.09 306.98 80.28 299.27 76.16"/>
      <polygon class="ah" points="299.27 76.16 289.53 78.12 283.83 85.11 284.77 93.2 291.32 99.59 301.14 100.87 309.09 95.76 311.43 88.09 307.69 79.57 299.27 76.16"/>
      <polygon class="aj" points="308.67 85.36 305.23 80.42 297.87 80.42 302.91 85.36 308.67 85.36"/>
      <polygon class="z" points="304.41 86.81 304.41 92.61 309.19 86.81 304.41 86.81"/>
      <polygon class="s" points="291.78 58.69 304.41 70.62 317.51 76.58 316.11 89.37 358.21 93.63 331.08 73.18 291.78 58.69"/>
      <polygon class="an" points="292.25 73.6 309.09 78.71 317.51 76.58 304.41 70.62 292.25 73.6"/>
      <polygon class="u" points="309.09 78.71 316.14 89.18 317.51 76.58 309.09 78.71"/>
      <polygon class="an" points="291.78 49.31 291.78 58.69 252.96 74.88 254.77 63.38 254.83 63.37 291.78 49.31"/>
      <polygon class="al" points="341.3 69.31 331.08 73.18 291.78 58.69 291.78 49.31 291.95 49.38 340.52 69 341.3 69.31"/>
      <polygon class="ai" points="266.99 46.76 251.6 49.31 248.66 59.37 240.8 45.05 234.72 44.63 232.38 34.4 225.5 27.3 243.14 35.7 259.04 28.88 254.36 38.25 266.99 46.76"/>
      <polygon class="l" points="281.96 197.6 286.64 206.98 270.73 200.16 235.95 216.72 244.54 205.27 240.47 192.89 267.46 189.08 277.28 175.02 279.62 186.28 295.53 191.64 281.96 197.6"/>
      <polygon class="l" points="182.79 373.16 172.04 368.47 166.89 380.41 161.28 364.21 144.44 379.13 149.12 358.25 128.95 344.43 148.18 345.04 156.33 337.3 182.79 373.16"/>
      <polygon class="ai" points="268.86 296.89 256.23 295.18 257.64 299.87 239.49 288.5 246.41 284.53 247.75 270.08 253.43 285.38 268.86 286.23 262.31 289.64 268.86 296.89"/>
      <polygon class="ab" points="254.83 63.37 252.96 74.88 225.83 82.12 222.09 66.78 222.09 66.78 254.83 63.37"/>
      <polygon class="an" points="225.83 82.12 146.78 127.29 135.55 129.85 221.68 67.09 222.09 66.78 222.19 66.77 225.83 82.12"/>
      <polygon class="w" points="374.58 97.89 358.21 93.63 331.08 73.18 341.3 69.31 341.37 69.34 374.58 97.89"/>
      <polygon class="j" points="252.96 74.88 284.3 76.16 291.78 58.69 252.96 74.88"/>
      <polygon class="ap" points="291.78 58.69 284.3 76.16 292.25 73.6 304.41 70.62 291.78 58.69"/>
      <polygon class="ad" points="350.72 106.84 355.87 102.58 364.29 110.06 350.72 106.84"/>
      <polygon class="k" points="355.87 102.58 357.74 98.74 364.29 110.06 355.87 102.58"/>
      <polygon class="t" points="273.52 126.03 237.52 163.51 259.51 106.41 273.52 126.03"/>
      <polygon class="g" points="252.96 74.88 259.51 106.41 278.18 86.96 284.3 76.16 252.96 74.88"/>
      <polygon class="ag" points="225.83 82.12 259.51 106.41 252.96 74.88 225.83 82.12"/>
      <polyline class="af" points="286.64 206.98 274.94 197.18 281.96 197.6"/>
      <polygon class="af" points="279.62 186.28 275.41 189.93 295.99 191.64 279.62 186.28"/>
      <polyline class="p" points="235.95 216.72 244.54 205.27 270.73 200.16"/>
      <polygon class="e" points="259.51 106.41 299.07 105.99 273.52 126.03 259.51 106.41"/>
      <polygon class="g" points="273.52 126.03 299.07 105.99 302.07 132.83 273.52 126.03"/>
      <polygon class="ak" points="302.07 132.83 299.07 105.99 329.67 116.64 372.71 116.64 369.9 120.47 302.07 132.83"/>
      <polygon class="t" points="357.74 98.74 354.46 99.59 350.72 106.84 355.87 102.58 357.74 98.74"/>
      <polygon class="t" points="135.55 129.85 146.78 127.29 139.76 175.02 104.68 222.74 135.55 129.85"/>
      <polygon class="am" points="126.58 289.27 127.13 290.92 139.76 175.02 104.68 222.74 126.58 289.27"/>
      <polygon class="h" points="244.54 205.27 235.91 216.74 235.84 216.78 204.31 189.51 244.54 205.27"/>
      <polygon class="e" points="237.52 163.51 230.97 170.76 207.12 167.77 259.51 106.41 237.52 163.51"/>
      <polygon class="ak" points="146.78 127.29 225.83 82.12 182.79 170.33 139.76 175.02 146.78 127.29"/>
      <polygon class="t" points="200.28 222.41 204.31 189.51 213.2 197.18 200.28 222.41"/>
      <polygon class="f" points="240.29 192.45 230.97 170.76 237.52 163.51 240.27 192.27 240.29 192.45"/>
      <polygon class="x" points="148.18 345.04 149.12 358.25 128.95 344.43 148.18 345.04"/>
      <polygon class="x" points="144.44 379.13 154.73 361.66 161.28 364.21 144.44 379.13"/>
      <polygon class="x" points="172.04 368.47 167.83 367.2 166.89 380.41 172.04 368.47"/>
      <polygon class="h" points="204.31 189.51 182.79 202.29 166.75 273.02 201.97 257.9 200.28 222.41 204.31 189.51"/>
      <polygon class="m" points="139.76 175.02 182.79 202.29 204.31 189.51 207.12 167.77 139.76 175.02"/>
      <polygon class="ac" points="127.13 290.92 145.07 322.04 166.89 273.02 127.13 290.92"/>
      <polygon class="t" points="166.75 273.02 235.18 303.28 201.97 257.9 166.75 273.02"/>
      <polygon class="t" points="148.18 345.04 128.95 344.43 100 324.58 100.05 324.41 118.24 319.47 148.18 345.04"/>
      <polygon class="ac" points="127.13 290.92 118.24 319.47 100.05 324.41 109.82 288.36 127.13 290.92"/>
      <polygon class="o" points="139.76 175.02 182.79 202.29 127.13 290.92 139.76 175.02"/>
      <polygon class="t" points="145.07 322.04 217.41 339.5 194.02 358.67 145.07 322.04"/>
      <polygon class="aq" points="194.02 358.67 217.41 339.5 275.88 382.54 194.02 358.67"/>
      <polygon class="t" points="275.88 382.54 324.53 331.83 353.21 356.85 275.88 382.54"/>
      <polygon class="q" points="217.41 339.5 275.88 382.54 324.53 331.83 217.41 339.5"/>
      <polygon class="y" points="324.53 331.83 353.21 356.85 391.89 324.16 324.53 331.83"/>
      <polygon class="aa" points="166.75 273.02 217.41 339.5 235.18 303.28 166.75 273.02"/>
      <polygon class="m" points="324.53 331.83 358.06 297.72 409.19 292.2 391.89 324.16 324.53 331.83"/>
      <polygon class="an" points="355.26 212.97 350.25 219.33 382.06 229.13 392.23 225.27 355.26 212.97"/>
      <polygon class="ae" points="355.26 212.97 350.25 219.33 327.8 221.46 325.93 216.35 355.26 212.97"/>
      <polygon class="r" points="325.77 216.41 327.8 221.46 298.53 231.36 287.22 231.36 325.77 216.41"/>
      <polygon class="r" points="412 259.39 382.06 229.13 392.23 225.27 412 259.39"/>
      <polyline class="aq" points="358.06 297.72 290.79 315.61 324.53 331.83"/>
      <polygon class="t" points="373.54 258.48 383.06 294.83 358.06 297.72 373.54 258.48"/>
      <polygon class="n" points="346.04 232.12 384.87 258.54 409.19 292.2 383.06 294.83 373.54 258.48 346.04 232.12"/>
      <polygon class="o" points="382.06 229.13 384.87 258.54 409.19 292.2 412 259.39 382.06 229.13"/>
      <polygon class="t" points="235.18 303.28 324.53 331.83 290.79 315.61 235.18 303.28"/>
    </g>
    <g>
      <path class="aj" d="M198.78,460.89c0,3.3-.5,6.4-1.51,9.29-1,2.89-2.4,5.44-4.18,7.64-1.78,2.2-3.85,3.92-6.19,5.16-2.34,1.24-4.85,1.86-7.53,1.86h-47.74c-2.68,0-5.19-.62-7.53-1.86-2.34-1.24-4.41-2.96-6.19-5.16-1.78-2.2-3.18-4.75-4.18-7.64-1-2.89-1.51-5.99-1.51-9.29v-28.09c0-3.3.5-6.4,1.51-9.29,1-2.89,2.4-5.44,4.18-7.64,1.78-2.2,3.85-3.92,6.19-5.16,2.34-1.24,4.85-1.86,7.53-1.86h67.15v19.83h-70.49v36.35h54.43l.14-10.23h-27.4v-15.98h43.39l-.06,22.09Z"/>
      <path class="aj" d="M292.47,463.37c0,2.94-.5,5.71-1.51,8.33-1,2.62-2.4,4.89-4.18,6.82-1.78,1.93-3.85,3.47-6.19,4.61-2.34,1.15-4.85,1.72-7.53,1.72h-67.15v-19.83h70.49v-36.35h-70.49v-19.83h67.15c2.68,0,5.17.57,7.47,1.72,2.3,1.15,4.29,2.68,5.97,4.61s2.99,4.2,3.96,6.82c.97,2.62,1.45,5.39,1.45,8.33,0,3.3-.6,6.38-1.78,9.22-1.19,2.85-2.79,5.23-4.8,7.16,2.16,2.02,3.88,4.45,5.19,7.3,1.3,2.85,1.95,5.97,1.95,9.36ZM271.06,454.79h-65.14v-15.88h65.14v15.88Z"/>
      <path class="aj" d="M399.77,484.85h-26.43l-23.31-22.72c-1.27-1.19-2.38-2.57-3.35-4.13-.97-1.56-1.75-3.3-2.34-5.23-.6,1.93-1.36,3.67-2.29,5.23-.93,1.56-2.03,2.94-3.29,4.13l-23.31,22.72h-26.43l39.82-38.28-39.26-37.72h26.43l22.86,22.17c1.19,1.19,2.25,2.57,3.18,4.13.93,1.56,1.69,3.26,2.29,5.09,1.12-3.67,2.97-6.75,5.58-9.22l22.86-22.17h26.43l-39.26,37.72,39.82,38.28Z"/>
    </g>
  </g>
</svg>