<?xml version="1.0" encoding="UTF-8"?>
<svg id="a" data-name="G3X PNG colorido" xmlns="http://www.w3.org/2000/svg" viewBox="0 0 512 512">
  <defs>
    <style>
      .d {
        opacity: .21;
      }

      .d, .e, .f, .g, .h, .i, .j, .k, .l, .m, .n, .o, .p, .q, .r, .s, .t, .u, .v, .w, .x, .y, .z, .aa, .ab, .ac, .ad, .ae, .af, .ag, .ah, .ai, .aj, .ak, .al, .am, .an, .ao, .ap, .aq {
        stroke-width: 0px;
      }

      .d, .e, .g, .h, .j, .m, .n, .o, .q, .s, .t, .y, .aa, .ac, .ag, .ak, .am, .ap, .aq {
        fill: #694;
      }

      .e {
        opacity: .54;
      }

      .f, .k, .r, .w, .ab, .ae, .al, .an {
        fill: #d2db5e;
      }

      .f, .aq {
        opacity: .68;
      }

      .g {
        opacity: .35;
      }

      .h, .af {
        opacity: .53;
      }

      .i {
        fill: #4e7137;
      }

      .j, .k {
        opacity: .6;
      }

      .l {
        fill: #e45f9f;
      }

      .m {
        opacity: .28;
      }

      .n {
        opacity: .46;
      }

      .o {
        opacity: .15;
      }

      .p {
        opacity: .49;
      }

      .p, .v, .x, .af {
        fill: #da348a;
      }

      .q {
        opacity: .29;
      }

      .r {
        opacity: .39;
      }

      .s {
        opacity: .58;
      }

      .u {
        fill: #b8d15d;
        opacity: .72;
      }

      .w {
        opacity: .45;
      }

      .x, .aa {
        opacity: .47;
      }

      .y {
        opacity: .61;
      }

      .z {
        opacity: .97;
      }

      .z, .aj {
        fill: #fff;
      }

      .ab {
        opacity: .71;
      }

      .ac {
        opacity: .43;
      }

      .ad {
        fill: #30682c;
      }

      .ae {
        opacity: .64;
      }

      .ag {
        opacity: .56;
      }

      .ah {
        fill: #0e0c19;
      }

      .ai {
        fill: #b22873;
      }

      .ak {
        opacity: .17;
      }

      .al {
        opacity: .74;
      }

      .am {
        opacity: .65;
      }

      .ao {
        fill: #86bf5a;
      }

      .ap {
        opacity: .37;
      }
    </style>
  </defs>
  <g id="b" data-name="Meio">
    <g id="c" data-name="Logo Colorida">
      <polygon class="i" points="271.87 369.58 256.29 367.48 258.02 373.26 235.62 359.24 221.08 350.13 211.26 361.7 189.33 330.97 226.85 307.01 237.82 314.9 245.82 336.5 252.83 355.39 271.87 356.44 263.79 360.64 271.87 369.58"/>
      <polygon class="i" points="269.57 60.91 250.57 64.06 246.94 76.47 237.24 58.81 230.45 58.33 229.74 58.28 235.09 81.04 236.66 87.73 191.9 107.71 200.91 64.63 203.18 53.79 217.99 36.72 218.36 36.9 240.13 47.26 259.75 38.85 253.98 50.42 269.57 60.91"/>
      <polygon class="l" points="417.92 147.15 423.69 155.04 393.67 148.67 394.49 146.72 398.16 137.94 400.02 133.48 428.31 146.1 417.92 147.15"/>
      <polygon class="v" points="417.92 147.15 394.49 146.72 398.16 137.94 401.18 135.05 417.92 147.15"/>
      <polygon class="p" points="390.21 145.57 417.92 147.15 423.69 155.04 389.06 147.67 390.21 145.57"/>
      <polygon class="ao" points="448.51 323.31 445.05 363.8 423.69 403.24 375.96 443.58 280.53 475.28 179.51 445.83 119.11 400.62 133.01 419.46 165.66 463.71 152.38 457.93 146.03 472.65 139.11 452.67 118.33 471.07 124.1 445.31 99.21 428.25 63.49 403.76 63.55 403.55 75.61 359.07 96.97 362.22 96.49 360.78 69.26 278.09 69.55 277.22 107.36 163.45 213.64 86 214.15 85.62 214.27 85.61 254.31 81.44 254.48 81.42 254.56 81.42 300.16 64.06 300.36 64.14 360.3 88.36 361.26 88.75 361.35 88.78 398.86 120.97 410.58 131.02 410.99 131.37 396.56 151.88 312.86 167.13 277.65 158.72 277.62 158.74 233.2 204.99 236.59 240.48 236.61 240.7 236.61 240.71 236.66 241.28 236.84 241.25 270.14 236.54 282.26 219.19 285.15 233.09 304.78 239.7 288.04 247.06 293.81 258.63 274.18 250.22 231.26 270.66 231.21 270.68 231.12 270.72 203.18 246.53 187.23 277.67 189.33 321.47 230.31 377.47 298.93 392.68 381.95 370.61 401.05 322.19 367.12 289.65 328.32 288.72 294.53 288.72 342.1 270.27 378.5 266.03 424.11 281.21 448.51 323.31"/>
      <polygon class="d" points="260.33 134.53 283.38 110.53 323.83 127.69 309.4 134 260.33 134.53"/>
      <polygon class="t" points="300.74 94.04 290.92 97.19 283.42 110.34 285.15 122.43 294.39 131.9 309.4 134 323.83 127.69 330.21 113.27 321.52 100.35 300.74 94.04"/>
      <polygon class="l" points="309.4 97.19 291.87 100.12 283.38 110.53 284.77 122.58 294.52 132.1 309.15 134.01 321 126.39 324.4 111.92 318.91 102.27 309.4 97.19"/>
      <polygon class="ah" points="309.4 97.19 297.38 99.62 290.35 108.24 291.5 118.23 299.58 126.11 311.7 127.69 321.52 121.38 324.4 111.92 319.79 101.4 309.4 97.19"/>
      <polygon class="aj" points="321 108.55 316.76 102.45 307.66 102.45 313.89 108.55 321 108.55"/>
      <polygon class="z" points="315.75 110.34 315.75 117.49 321.63 110.34 315.75 110.34"/>
      <polygon class="s" points="300.16 75.63 315.75 90.36 331.91 97.72 330.18 113.49 382.13 118.75 348.65 93.51 300.16 75.63"/>
      <polygon class="an" points="300.74 94.04 321.52 100.35 331.91 97.72 315.75 90.36 300.74 94.04"/>
      <polygon class="u" points="321.52 100.35 330.21 113.27 331.91 97.72 321.52 100.35"/>
      <polygon class="an" points="300.16 64.06 300.16 75.63 252.25 95.62 254.48 81.42 254.56 81.42 300.16 64.06"/>
      <polygon class="al" points="361.26 88.75 348.65 93.51 300.16 75.63 300.16 64.06 300.36 64.14 360.3 88.36 361.26 88.75"/>
      <polygon class="ai" points="269.57 60.91 250.57 64.06 246.94 76.47 237.24 58.81 229.74 58.28 226.85 45.66 218.36 36.9 240.13 47.26 259.75 38.85 253.98 50.42 269.57 60.91"/>
      <polygon class="l" points="288.04 247.06 293.81 258.63 274.18 250.22 231.26 270.66 241.86 256.53 236.84 241.25 270.14 236.54 282.26 219.19 285.15 233.09 304.78 239.7 288.04 247.06"/>
      <polygon class="l" points="165.66 463.71 152.38 457.93 146.03 472.65 139.11 452.67 118.33 471.07 124.1 445.31 99.21 428.25 122.94 429.01 133.01 419.46 165.66 463.71"/>
      <polygon class="ai" points="271.87 369.58 256.29 367.48 258.02 373.26 235.62 359.24 244.17 354.33 245.82 336.5 252.83 355.39 271.87 356.44 263.79 360.64 271.87 369.58"/>
      <polygon class="ab" points="254.56 81.42 252.25 95.62 218.77 104.55 214.15 85.62 214.15 85.62 254.56 81.42"/>
      <polygon class="an" points="218.77 104.55 121.21 160.3 107.36 163.45 213.64 86 214.15 85.62 214.27 85.61 218.77 104.55"/>
      <polygon class="w" points="402.33 124.01 382.13 118.75 348.65 93.51 361.26 88.75 361.35 88.78 402.33 124.01"/>
      <polygon class="j" points="252.25 95.62 290.92 97.19 300.16 75.63 252.25 95.62"/>
      <polygon class="ap" points="300.16 75.63 290.92 97.19 300.74 94.04 315.75 90.36 300.16 75.63"/>
      <polygon class="ad" points="372.89 135.05 379.24 129.8 389.63 139.03 372.89 135.05"/>
      <polygon class="k" points="379.24 129.8 381.55 125.06 389.63 139.03 379.24 129.8"/>
      <polygon class="t" points="277.62 158.74 233.2 204.99 260.33 134.53 277.62 158.74"/>
      <polygon class="g" points="252.25 95.62 260.33 134.53 283.38 110.53 290.92 97.19 252.25 95.62"/>
      <polygon class="ag" points="218.77 104.55 260.33 134.53 252.25 95.62 218.77 104.55"/>
      <polyline class="af" points="293.81 258.63 279.38 246.53 288.04 247.06"/>
      <polygon class="af" points="285.15 233.09 279.96 237.6 305.35 239.7 285.15 233.09"/>
      <polyline class="p" points="231.26 270.66 241.86 256.53 274.18 250.22"/>
      <polygon class="e" points="260.33 134.53 309.15 134.01 277.62 158.74 260.33 134.53"/>
      <polygon class="g" points="277.62 158.74 309.15 134.01 312.86 167.13 277.62 158.74"/>
      <polygon class="ak" points="312.86 167.13 309.15 134.01 346.92 147.15 400.02 147.15 396.56 151.88 312.86 167.13"/>
      <polygon class="t" points="381.55 125.06 377.51 126.11 372.89 135.05 379.24 129.8 381.55 125.06"/>
      <polygon class="t" points="107.36 163.45 121.21 160.3 112.55 219.19 69.26 278.09 107.36 163.45"/>
      <polygon class="am" points="96.29 360.19 96.97 362.22 112.55 219.19 69.26 278.09 96.29 360.19"/>
      <polygon class="h" points="241.86 256.53 231.21 270.68 231.12 270.72 192.21 237.07 241.86 256.53"/>
      <polygon class="e" points="233.2 204.99 225.12 213.93 195.68 210.25 260.33 134.53 233.2 204.99"/>
      <polygon class="ak" points="121.21 160.3 218.77 104.55 165.66 213.41 112.55 219.19 121.21 160.3"/>
      <polygon class="t" points="187.23 277.67 192.21 237.07 203.18 246.53 187.23 277.67"/>
      <polygon class="f" points="236.61 240.7 225.12 213.93 233.2 204.99 236.59 240.48 236.61 240.7"/>
      <polygon class="x" points="122.94 429.01 124.1 445.31 99.21 428.25 122.94 429.01"/>
      <polygon class="x" points="118.33 471.07 131.03 449.51 139.11 452.67 118.33 471.07"/>
      <polygon class="x" points="152.38 457.93 147.19 456.35 146.03 472.65 152.38 457.93"/>
      <polygon class="h" points="192.21 237.07 165.66 252.84 145.86 340.14 189.33 321.47 187.23 277.67 192.21 237.07"/>
      <polygon class="m" points="112.55 219.19 165.66 252.84 192.21 237.07 195.68 210.25 112.55 219.19"/>
      <polygon class="ac" points="96.97 362.22 119.11 400.62 146.03 340.14 96.97 362.22"/>
      <polygon class="t" points="145.86 340.14 230.31 377.47 189.33 321.47 145.86 340.14"/>
      <polygon class="t" points="122.94 429.01 99.21 428.25 63.49 403.76 63.55 403.55 86 397.45 122.94 429.01"/>
      <polygon class="ac" points="96.97 362.22 86 397.45 63.55 403.55 75.61 359.07 96.97 362.22"/>
      <polygon class="o" points="112.55 219.19 165.66 252.84 96.97 362.22 112.55 219.19"/>
      <polygon class="t" points="119.11 400.62 208.38 422.17 179.51 445.83 119.11 400.62"/>
      <polygon class="aq" points="179.51 445.83 208.38 422.17 280.53 475.28 179.51 445.83"/>
      <polygon class="t" points="280.53 475.28 340.57 412.7 375.96 443.58 280.53 475.28"/>
      <polygon class="q" points="208.38 422.17 280.53 475.28 340.57 412.7 208.38 422.17"/>
      <polygon class="y" points="340.57 412.7 375.96 443.58 423.69 403.24 340.57 412.7"/>
      <polygon class="aa" points="145.86 340.14 208.38 422.17 230.31 377.47 145.86 340.14"/>
      <polygon class="m" points="340.57 412.7 381.95 370.61 445.05 363.8 423.69 403.24 340.57 412.7"/>
      <polygon class="an" points="378.5 266.03 372.32 273.88 411.57 285.97 424.11 281.21 378.5 266.03"/>
      <polygon class="ae" points="378.5 266.03 372.32 273.88 344.61 276.51 342.3 270.2 378.5 266.03"/>
      <polygon class="r" points="342.1 270.27 344.61 276.51 308.48 288.72 294.53 288.72 342.1 270.27"/>
      <polygon class="r" points="448.51 323.31 411.57 285.97 424.11 281.21 448.51 323.31"/>
      <polyline class="aq" points="381.95 370.61 298.93 392.68 340.57 412.7"/>
      <polygon class="t" points="401.05 322.19 412.8 367.05 381.95 370.61 401.05 322.19"/>
      <polygon class="n" points="367.12 289.65 415.03 322.26 445.05 363.8 412.8 367.05 401.05 322.19 367.12 289.65"/>
      <polygon class="o" points="411.57 285.97 415.03 322.26 445.05 363.8 448.51 323.31 411.57 285.97"/>
      <polygon class="t" points="230.31 377.47 340.57 412.7 298.93 392.68 230.31 377.47"/>
    </g>
    <g>
      <path class="aj" d="M185.91,273.2c0,4.05-.62,7.84-1.84,11.38-1.23,3.54-2.94,6.66-5.12,9.36-2.19,2.7-4.71,4.81-7.58,6.32-2.87,1.52-5.94,2.28-9.22,2.28h-58.48c-3.28,0-6.35-.76-9.22-2.28-2.87-1.52-5.4-3.63-7.58-6.32-2.19-2.7-3.89-5.82-5.12-9.36-1.23-3.54-1.84-7.34-1.84-11.38v-34.41c0-4.05.62-7.84,1.84-11.38,1.23-3.54,2.94-6.66,5.12-9.36,2.19-2.7,4.71-4.81,7.58-6.32,2.87-1.52,5.94-2.28,9.22-2.28h82.25v24.29h-86.35v44.52h66.67l.17-12.54h-33.56v-19.58h53.14l-.07,27.06Z"/>
      <path class="aj" d="M300.68,276.24c0,3.6-.62,7-1.84,10.2-1.23,3.2-2.94,5.99-5.12,8.35-2.19,2.36-4.71,4.25-7.58,5.65-2.87,1.41-5.94,2.11-9.22,2.11h-82.25v-24.29h86.35v-44.52h-86.35v-24.29h82.25c3.28,0,6.33.7,9.15,2.11,2.82,1.41,5.26,3.29,7.31,5.65s3.67,5.14,4.85,8.35c1.18,3.2,1.78,6.61,1.78,10.2,0,4.05-.73,7.82-2.19,11.3-1.46,3.49-3.42,6.41-5.87,8.77,2.64,2.47,4.76,5.45,6.35,8.94,1.59,3.49,2.39,7.31,2.39,11.47ZM274.44,265.73h-79.79v-19.45h79.79v19.45Z"/>
      <path class="aj" d="M432.11,302.55h-32.38l-28.55-27.83c-1.55-1.46-2.92-3.15-4.1-5.06-1.18-1.91-2.14-4.05-2.87-6.41-.73,2.36-1.66,4.5-2.8,6.41-1.14,1.91-2.48,3.6-4.03,5.06l-28.55,27.83h-32.38l48.78-46.89-48.09-46.21h32.38l28.01,27.15c1.46,1.46,2.75,3.15,3.89,5.06,1.14,1.91,2.07,3.99,2.8,6.24,1.37-4.5,3.64-8.26,6.83-11.3l28.01-27.15h32.38l-48.09,46.21,48.78,46.89Z"/>
    </g>
  </g>
</svg>